<svg width="450" height="286" viewBox="0 0 450 286" fill="none" xmlns="http://www.w3.org/2000/svg">
<path fill-rule="evenodd" clip-rule="evenodd" d="M185.129 1.95106C178.157 5.40156 174.338 13.3684 175.835 21.341C177.079 27.9739 186.052 35.1679 193.08 35.1679C197.303 35.1679 203.18 32.162 206.621 28.243C213.784 20.0843 210.912 6.74894 200.952 1.92721C195.627 -0.650169 190.369 -0.64254 185.129 1.95106ZM259.63 0.659042C256.054 1.78122 250.697 6.62203 249.281 10.0115C247.481 14.317 247.6 21.3057 249.54 25.3956C252.89 32.454 262.919 36.7156 270.383 34.2518C281.216 30.6772 286.122 17.3543 280.03 8.05624C277.104 3.59139 272.255 0.757325 266.861 0.358457C264.069 0.152343 260.815 0.286892 259.63 0.659042ZM140.017 55.1056C115.349 73.7789 96.3204 99.7188 87.1197 127.216C82.4526 141.165 80.8676 150.178 80.3123 165.94C79.2807 195.195 86.7686 220.719 103.133 243.724C109.529 252.716 129.023 272.139 137.47 277.936C142.849 281.627 142.849 281.627 145.54 279.689C147.02 278.623 149.689 276.233 151.47 274.378C154.71 271.006 154.71 271.006 149.945 265.469C133.422 246.265 124.245 226.865 119.341 200.769C118.112 194.228 117.725 186.723 117.715 169.279C117.705 149.212 117.971 145.051 119.871 135.664C125.116 109.742 135.361 88.4025 151.361 70.0698C157.997 62.4675 157.997 62.4675 152.637 56.473C149.689 53.1761 147.019 50.4785 146.703 50.4785C146.388 50.4776 143.378 52.5606 140.017 55.1056ZM305.257 57.264C300.224 61.4684 299.584 62.3568 300.616 63.7051C301.273 64.5649 303.377 67.2005 305.291 69.5622C310.083 75.4746 318.675 88.8663 322.258 96.0058C332.728 116.875 337.589 139.151 337.626 166.441C337.683 206.75 326.006 240.712 304.195 263.673C297.331 270.899 297.331 270.899 301.338 276.093C307.498 284.076 307.182 283.984 313.498 279.67C338.319 262.717 358.623 235.801 368.11 207.273C376.888 180.873 377.057 150.44 368.566 124.954C361.965 105.145 351.818 89.0972 335.275 72.3085C325.802 62.6936 313.81 52.386 312.097 52.386C311.545 52.386 308.467 54.5807 305.257 57.264ZM72.9618 60.4054C39.1744 80.699 14.7728 111.396 5.15986 145.702C-5.81666 184.874 0.811423 223.381 24.1653 256.114C31.5224 266.426 46.1517 282.356 48.2644 282.356C49.9543 282.356 58.2409 277.275 59.991 275.167C60.8937 274.079 60.2314 272.423 56.6674 266.87C47.7739 253.007 41.7852 237.919 38.3366 220.688C36.0102 209.058 36.0025 181.042 38.3232 166.337C44.4064 127.788 60.4013 96.3494 84.3687 75.8334C88.0034 72.7226 91.5645 69.65 92.2831 69.0059C93.368 68.0335 92.8032 66.6909 88.9433 61.0695C86.3879 57.349 84.0366 54.3021 83.717 54.2992C83.3982 54.2964 78.5584 57.0446 72.9618 60.4054ZM369.672 61.8692C364.064 67.5344 364.064 67.5344 372.693 76.6512C400.26 105.78 413.283 141.114 413.336 186.933C413.376 220.355 405.292 246.515 388.058 268.738C385.523 272.006 383.449 275.027 383.449 275.45C383.449 275.873 385.797 278.538 388.667 281.373C393.68 286.323 393.984 286.474 396.359 285.203C397.719 284.475 403.435 279.129 409.061 273.321C447.123 234.032 459.564 181.25 442.505 131.436C433.584 105.385 413.267 81.1227 383.324 60.7613C379.638 58.2545 376.319 56.2029 375.949 56.2029C375.58 56.2029 372.755 58.7526 369.672 61.8692ZM193.557 71.4153C185.344 73.0737 178.905 78.4022 175.044 86.7383C173.38 90.3262 173.061 92.8359 173.094 102.006C173.131 112.006 173.41 113.709 176.234 121.202C181.108 134.137 191.605 148.763 196.016 148.763C198.236 148.763 197.579 145.389 194.115 139.015C185.532 123.222 184.457 105.407 191.807 100.741C193.032 99.963 195.966 99.0193 198.328 98.6433C205.345 97.5269 209.317 94.9743 211.701 90.0486C214.047 85.2039 213.893 80.9481 211.226 76.8783C208.438 72.6224 200.197 70.0746 193.557 71.4153ZM256.379 71.4191C249.289 72.7951 244.825 77.5911 244.825 83.8346C244.825 91.436 250.88 97.504 259.648 98.6882C262.397 99.0594 265.394 99.756 266.307 100.236C269.442 101.884 271.222 106.876 271.189 113.934C271.152 121.898 270.18 125.282 264.395 137.568C261.089 144.589 260.277 147.161 261.103 147.987C262.746 149.63 265.362 148.004 269.834 142.561C274.971 136.31 281.714 123.153 283.773 115.365C286.11 106.521 285.942 94.3512 283.391 87.6821C279.035 76.2952 267.389 69.2835 256.379 71.4191Z" fill="currentColor"/>
</svg>
